<?xml version="1.0"?>
<svg width="450" height="520" xmlns="http://www.w3.org/2000/svg" xmlns:svg="http://www.w3.org/2000/svg" version="1.1">
 <g class="layer">
  <title>Layer 1</title>
  <g id="svg_22">
   <path d="m448.31,409.02c-0.53,-3.43 -0.74,-6.91 -1.37,-10.32c-3.41,-18.55 -13.92,-31.25 -31.51,-38.12c-4.9,-1.92 -9.33,-4.51 -12.62,-8.79c-12.28,-15.97 -21.17,-33.76 -28.13,-52.57c-0.91,-2.43 -1.45,-4.99 -2.12,-7.5c-3.95,-14.97 -4.68,-30.39 -4.49,-45.64c0.17,-15 -0.08,-30.1 2.09,-45.03c0.74,-5.15 1.58,-10.29 2.13,-15.45c1.66,-15.56 4.4,-30.91 8.24,-46.06c1.2,-4.74 2.69,-9.42 4.04,-14.12c2.46,-8.62 5.01,-17.17 5.31,-26.27c0.52,-15.55 -2.05,-30.48 -7.52,-45c-4.84,-12.87 -11,-24.85 -22.1,-33.57c-6.6,-5.19 -13.1,-10.41 -22.13,-10.87c-14.57,-0.73 -28.95,-0.59 -42.35,6.3c-1.54,0.79 -3.15,1.43 -4.72,2.18c-5.73,2.74 -11.36,5.71 -17.2,8.2c-7.7,3.28 -15.74,5.79 -23.31,9.34c-8.65,4.06 -17.66,6.9 -26.61,10.12c-12.48,4.48 -25.04,4.32 -37.68,3.23c-11.55,-1.01 -23,-1.09 -34.53,-0.36c-4.02,0.25 -8.07,-0.16 -12.1,-0.18c-8.09,-0.04 -16.18,-0.2 -24.26,0.02c-6.92,0.19 -13.83,1.14 -20.75,1.21c-5.55,0.07 -10.9,0.79 -16.29,2.04c-7.58,1.77 -15.26,3.1 -22.86,4.75c-1.94,0.42 -3.78,1.3 -5.65,2.01c-8.08,3.06 -14.81,9.03 -22.81,10.52c-2.83,4.13 -5.71,7.42 -7.59,11.22c-5.03,10.16 -8.81,20.81 -8.57,32.36c0.09,4.28 0.94,8.59 1.76,12.82c0.32,1.6 1.22,3.36 2.41,4.45c6.58,6.07 12.88,12.6 20.62,17.17c6.36,3.76 13.53,5.64 20.82,3.13c13.15,-4.54 20.73,-15.99 18.7,-30.46c-0.27,-1.9 -1.14,-4.05 -2.44,-5.42c-2.97,-3.14 -6.21,-6.07 -9.66,-8.64c-1.5,-1.13 -3.9,-1.84 -5.72,-1.57c-6.33,0.91 -12.31,3.14 -17.75,6.54c-1.94,1.22 -1.62,4.91 0.45,5.92c1.26,0.61 2.75,0.78 4.11,1.2c5.96,1.81 10.96,5.36 15.29,9.57c5.4,5.25 3.06,13.62 -4.07,15.68c-1.35,0.39 -2.84,0.43 -4.28,0.44c-4.13,0.02 -7.98,-1.18 -11.69,-2.89c-6.4,-2.94 -11.66,-7.49 -16.87,-12.07c-2.42,-2.13 -3.97,-4.96 -4.45,-8.25c-1.09,-7.49 -1.25,-14.99 0.53,-22.39c1.38,-5.77 4.2,-10.75 9.06,-14.39c5.87,-4.38 12.21,-7.69 19.45,-9.16c6.15,-1.24 12.25,-1.03 17.78,1.87c10.5,5.5 17.55,14.32 20.82,25.52c1.75,6 1.78,12.57 2.03,18.9c0.3,7.8 -0.46,15.65 0.09,23.43c1.61,22.76 -1.91,44.93 -6.64,67.04c-1.15,5.36 -1.81,10.83 -2.55,16.27c-1.49,10.93 -0.97,21.94 -1.3,32.93c-0.38,12.99 0.54,26.03 -1.49,38.96c-0.23,1.41 -0.13,2.89 -0.16,4.33c-0.32,16.74 -0.95,33.48 -1.91,50.21c-1,17.37 -0.01,34.64 3.48,51.79c4.21,20.74 10.29,40.9 17.72,60.69c3.81,10.15 9.52,19.11 17.23,26.78c1.84,1.83 3.62,3.75 5.4,5.64c3.66,3.9 8.12,6.44 13.2,8c1.9,0.58 4.15,0.87 5.57,2.09c4.02,3.45 8.74,4.11 13.72,4.48c8.13,0.6 16.13,-0.74 24.2,-1.27c21.82,-1.43 42.85,-6.45 63.65,-12.75c2.22,-0.67 4.43,-1.32 6.69,-1.83c12.11,-2.75 24.3,-5.18 36.33,-8.26c13.72,-3.5 27.26,-7.65 40.91,-11.38c17.33,-4.72 34.02,-11.24 50.36,-18.55c17.66,-7.9 35.84,-14.73 52.49,-24.77c5.69,-3.44 11.47,-6.76 16.98,-10.45c5.23,-3.53 7.58,-8.57 6.59,-15zm-389.13,-290.48c-2.46,-1.76 -5.42,-2.87 -7.64,-5.66c4.99,-2.27 8.74,-0.82 12.16,2.03c2.94,2.43 5.43,5.14 4.08,10.51c-3.32,-2.68 -5.86,-4.93 -8.6,-6.88zm87.18,382.25c-10.65,1 -19.92,-3.81 -27.19,-11.25c-9.13,-9.35 -15.84,-20.27 -20.33,-32.84c-4.39,-12.27 -8.3,-24.59 -11.18,-37.27c-3.39,-14.93 -6.48,-29.93 -7.17,-45.24c-0.38,-8.64 -0.18,-17.4 0.79,-25.98c1.37,-12.13 0.66,-24.24 1.14,-36.37c0.24,-6.04 0.97,-12.07 1.34,-18.12c0.33,-5.48 0.65,-10.97 0.64,-16.46c-0.02,-12.11 0.7,-24.19 0.36,-36.33c-0.3,-10.88 1.16,-21.79 4.15,-32.47c2,-7.19 2.9,-14.68 4.28,-22.04c0.54,-2.83 1.27,-5.64 1.56,-8.49c0.68,-6.61 1.54,-13.23 1.62,-19.86c0.17,-12.73 -0.12,-25.46 -0.27,-38.18c-0.1,-7.85 -1.19,-15.72 -4.1,-22.9c-7.09,-17.6 -19.23,-29.26 -39.34,-30.25c-0.5,-0.02 -0.99,-0.35 -2.13,-0.78c3.47,-2.24 6.88,-3.74 10.43,-4.46c13.29,-2.71 26.47,-6.15 40.14,-6.49c10.7,-0.26 21.38,-0.6 32.08,-0.68c13.88,-0.1 27.76,-0.02 41.64,0.08c4.34,0.03 8.74,-0.05 12.99,0.65c9.83,1.63 19.58,0.13 29.36,-0.23c3.37,-0.12 6.84,-1.25 10.04,-2.49c9.95,-3.86 19.79,-7.98 29.66,-12.05c7.2,-2.97 14.42,-5.91 21.53,-9.09c5.8,-2.59 11.51,-5.43 17.16,-8.33c7.8,-4 16.1,-6.97 24.7,-7.7c12.03,-1.01 23.55,1.48 33.52,9.06c6.09,4.64 10.68,10.21 14.13,17.2c4.75,9.64 9.2,19.32 11.61,29.79c4.54,19.64 3.69,39 -3.73,57.92c-0.95,2.4 -1.46,4.99 -2.03,7.52c-5.12,22.56 -8.38,45.43 -11.27,68.36c-0.29,2.29 -0.4,4.61 -0.48,6.91c-0.39,11.83 -1.49,23.69 -0.94,35.47c0.66,14.07 0.87,28.12 4.06,42.15c3.48,15.21 10.35,28.69 16.66,42.6c3.84,8.44 9.33,15.8 15.16,24.45c-13.68,2.69 -25.86,6.3 -38.52,7.82c-7.44,0.89 -14.81,2.44 -21.73,5.61c-1.56,0.72 -3.32,0.99 -4.91,1.68c-2.95,1.29 -5.55,0.93 -8.07,-1.13c-2.45,-2.02 -5.02,-3.91 -7.61,-5.75c-1.39,-0.99 -2.88,-1.95 -4.45,-2.58c-2.83,-1.14 -5.34,0.57 -5.38,3.6c-0.07,4.9 0.11,9.81 -0.05,14.72c-0.25,6.89 -0.69,13.78 -1.11,20.66c-0.03,0.46 -0.62,0.88 -1,1.4c-1.89,0.27 -2.18,-1.51 -2.9,-2.54c-6.45,-9.19 -15.28,-14.72 -26.15,-17.16c-7.3,-1.65 -14.61,-3.27 -21.93,-4.86c-2.1,-0.46 -4.16,0.75 -4.86,2.7c-0.69,1.89 -0.01,4.14 1.4,4.58c6.57,2.01 8.25,7.26 9.88,12.97c0.93,3.26 2.9,6.22 4.69,9.91c-3.94,0.59 -6.91,-0.61 -9.52,-2.05c-5.29,-2.9 -10.33,-6.27 -15.46,-9.44c-1.7,-1.05 -3.4,-2.09 -5.43,-3.34c-2.88,1.39 -5.77,2.67 -8.54,4.13c-3.58,1.88 -6.94,4.25 -10.64,5.79c-11.7,4.86 -23.57,9.31 -34.99,14.86c-3.28,1.6 -7.29,1.67 -10.96,2.44c-1.14,0.24 -2.33,0.3 -3.39,0.71c-2.21,0.84 -4.47,4.23 -4.2,6.05c0.26,1.8 2.49,3.89 5.19,3.88c10.97,-0.01 15.47,7.53 19.08,16.07c1.11,2.64 1.73,5.51 2.35,8.33c1.63,7.41 0.45,14.38 -3.81,20.71c-2.1,3.13 -4.24,6.23 -6.58,9.17c-7.93,9.91 -18.98,14.13 -31,15.25l0.01,0zm288.28,-79.83c-1,0.59 -1.89,1.37 -2.89,1.9c-13.01,6.89 -25.65,14.64 -39.13,20.4c-19.09,8.14 -37.86,17.16 -57.75,23.42c-8.55,2.68 -16.97,5.65 -25.76,7.54c-4.48,0.96 -8.67,3.21 -13.11,4.36c-12.84,3.32 -25.65,6.8 -38.79,8.94c-5.39,0.87 -10.6,2.89 -15.98,3.85c-11.95,2.13 -23.28,6.57 -35.13,9.01c-12.74,2.62 -25.59,4.48 -38.49,5.97c-0.4,0.05 -0.86,-0.48 -1.51,-0.87c1.25,-2.09 3.52,-2.87 5.32,-4.15c7.19,-5.07 13.42,-10.97 17.14,-19.14c0.24,-0.52 0.46,-1.07 0.8,-1.54c6.97,-9.67 7.46,-20.22 4.78,-31.47c-1.94,-8.15 -5.56,-15.08 -12,-20.48c-1.09,-0.91 -2.18,-1.83 -3.88,-3.25c1.84,-0.98 3.16,-1.81 4.58,-2.43c6.62,-2.89 13.25,-5.74 19.89,-8.57c2.92,-1.24 5.81,-2.64 8.85,-3.51c4.49,-1.28 8.77,-2.91 12.56,-5.66c5.03,-3.64 10.17,-3.6 15.41,-0.61c6.26,3.57 12.43,7.3 18.74,10.76c4.01,2.19 8.21,4 12.67,6.15c1.64,-2.35 3.06,-4.41 4.6,-6.61c-5.38,-8.33 -8.9,-17.08 -11.08,-26.87c4.51,-0.81 8.27,1.01 11.85,2.37c4.56,1.74 8.95,4.13 12.99,6.86c2.26,1.54 3.85,4.23 5.37,6.62c1.07,1.67 1.47,3.75 2.25,5.61c2.53,5.98 6.34,4.82 9.56,2.01c3.78,-3.32 5.8,-7.8 5.75,-13.07c-0.09,-7.49 -0.02,-14.99 0.08,-22.47c0.01,-1.07 0.65,-2.13 1.06,-3.39c2.77,-0.51 4.66,0.76 6.12,2.54c3.74,4.53 8.19,4.87 13.23,2.67c1.33,-0.57 2.7,-1.04 4.05,-1.56c7.54,-2.92 15.12,-5.3 23.36,-6.07c8.87,-0.82 17.62,-3.07 26.37,-4.94c17.15,-3.7 31.31,1.67 43.07,14.1c4.02,4.25 6.29,9.75 7.84,15.27c1.46,5.23 1.86,10.77 2.5,16.2c0.53,4.49 -1.44,7.84 -5.3,10.11l0.01,0z" id="svg_23"/>
   <path d="m294.18,334.51c-5.41,0.87 -10.73,2.22 -16.08,3.41c-15.44,3.42 -30.88,6.83 -46.31,10.34c-9.82,2.23 -19.44,5.22 -29.36,7c-7.92,1.43 -15.88,2.68 -23.82,4.01c-3.69,0.62 -7.42,1.12 -11.06,1.96c-0.7,0.16 -1.71,1.82 -1.49,2.41c0.3,0.85 1.51,1.57 2.48,1.91c0.72,0.25 1.68,-0.17 2.52,-0.34c5.07,-1.04 10.13,-2.12 15.2,-3.14c11.87,-2.37 23.81,-4.49 35.62,-7.14c10.68,-2.39 21.11,-5.92 31.85,-7.94c17.56,-3.3 34.86,-8.09 52.75,-9.53c4.3,-0.35 8.6,-0.9 12.86,-1.49c1.68,-0.23 3.42,-0.59 4.9,-1.36c0.67,-0.34 0.77,-1.79 1.42,-3.5c-2.71,0 -4.7,-0.21 -6.63,0.03c-8.3,1.04 -16.6,2.05 -24.85,3.37z" id="svg_24"/>
   <path d="m169.58,210.35c6.98,-1.8 13.84,-4.11 20.88,-5.53c13.86,-2.81 27.76,-5.4 41.72,-7.63c23.62,-3.79 47.31,-7.23 70.96,-10.83c2.35,-0.36 3.62,-1.77 3,-3.27c-0.63,-1.62 -1.98,-1.9 -3.49,-1.77c-1.14,0.11 -2.29,0.27 -3.42,0.47c-5.67,1.01 -11.32,2.1 -16.99,3.06c-6.82,1.18 -13.66,2.22 -20.48,3.38c-13.63,2.32 -27.26,4.69 -40.89,7.04c-10.78,1.86 -21.64,3.41 -32.34,5.69c-9.55,2.03 -18.72,5.72 -28.52,6.8c-0.67,0.07 -1.19,1.42 -2.18,2.68c4.48,1.31 8.15,0.84 11.75,-0.09z" id="svg_25"/>
   <path d="m169.4,141.62c6.91,-2.44 14.1,-2.77 21.28,-3.53c16.05,-1.71 32.26,-1.83 48.15,-5.4c6.7,-1.51 13.8,-1.18 20.58,-2.44c15.35,-2.86 30.81,-4.58 46.34,-5.99c3.43,-0.32 6.83,-1.18 10.18,-2c0.93,-0.23 1.65,-1.26 3.41,-2.69c-2.54,-0.16 -3.89,-0.47 -5.19,-0.31c-6.28,0.79 -12.53,1.79 -18.8,2.52c-4.88,0.57 -9.82,0.59 -14.66,1.29c-17.69,2.58 -35.31,5.59 -53.02,7.93c-11.72,1.55 -23.57,2.08 -35.31,3.41c-8.59,0.97 -17.12,2.44 -25.66,3.84c-0.84,0.14 -1.51,1.37 -3.09,2.88c2.68,0.28 4.44,0.97 5.79,0.49z" id="svg_26"/>
   <path d="m184.24,288.23c18.44,-3.57 36.93,-6.82 55.68,-8.29c8.35,-0.66 16.68,-1.56 25,-2.5c12.05,-1.36 24.07,-2.85 36.11,-4.31c0.85,-0.1 1.86,-0.13 2.49,-0.61c0.79,-0.61 1.87,-1.79 1.7,-2.45c-0.2,-0.82 -1.55,-1.95 -2.39,-1.93c-3.14,0.05 -6.31,0.33 -9.42,0.87c-4.26,0.74 -8.44,2.07 -12.71,2.62c-15.76,2.03 -31.54,3.81 -47.31,5.73c-6.86,0.83 -13.74,1.6 -20.57,2.65c-13.41,2.05 -26.8,4.28 -40.19,6.44c-0.85,0.14 -1.71,0.3 -2.56,0.46c-0.56,0.1 -1.14,0.16 -1.69,0.3c-1.05,0.26 -2.16,2 -1.59,2.55c0.59,0.57 1.37,0.92 1.87,1.24c5.37,-0.95 10.49,-1.79 15.58,-2.77z" id="svg_27"/>
  </g>
 </g>
</svg>