<?xml version="1.0"?>
<svg width="700" height="540" xmlns="http://www.w3.org/2000/svg" xmlns:svg="http://www.w3.org/2000/svg" version="1.1">
 <g class="layer">
  <title>Layer 1</title>
  <g id="svg_13">
   <path d="m135.96,110.37c18.44,-18.76 39.44,-37.72 64.88,-42.8l220.15,-42.61c8.42,-2.33 17.2,-3.19 25.93,-2.54c7.68,1.59 15.06,4.36 21.89,8.21l145.82,72.99c4.55,1.96 8.73,4.71 12.32,8.12c3.78,4.65 6.5,10.05 7.98,15.83l59.16,177.56c6.01,18.18 -5.32,37.23 -16.27,53.07l-82.62,119.82c-3.76,6.47 -8.95,12.01 -15.18,16.22c-5.5,2.67 -11.45,4.28 -17.55,4.79c-88.8,13.03 -177.93,23.72 -267.38,32.06c-11.14,1.69 -22.49,1.39 -33.52,-0.88c-9.34,-3 -18.15,-7.42 -26.13,-13.09c-92.87,-58.63 -190.88,-123.91 -234.06,-224.76c-4.04,-9.77 1.97,-20.03 7.89,-28.64c37.75,-54.58 80.14,-105.88 126.69,-153.33l0,-0.02zm450.46,144.72c-9.98,49.34 -0.14,100.61 27.41,142.87c33.91,-25.22 38.65,-74.66 28.59,-115.51c-10.05,-40.86 -31.55,-78.19 -39.44,-119.52c-4.43,-22.08 -26.81,-35.28 -47.03,-45.63l-96.71,-49.65c-4.36,-2.64 -9.23,-4.3 -14.3,-4.89c-10.85,0 -19.72,8.6 -26.42,16.71c-27.68,31.8 -58.72,60.56 -92.58,85.8c-6.11,4.5 -16.66,8.02 -19.72,1.08l96.33,-99.87c1.55,-1.21 2.49,-3.03 2.56,-4.99c-0.59,-3.32 -5.23,-3.62 -8.48,-3.13l-78.87,11.64c-34.99,3.6 -69.4,11.47 -102.44,23.45c-73.85,30.49 -123.73,98.6 -167.02,165.25l159.82,-31.07c19.72,-3.91 40.82,-8.6 53.73,-23.75c4.83,-5.67 8.87,-12.99 16.17,-14.96c7.3,-1.95 15.78,8.21 9.86,12.42c-3.53,3.25 -5.55,7.82 -5.55,12.61c0,4.78 2.02,9.35 5.55,12.6c7.56,6.09 16.74,9.85 26.42,10.85l218.09,43.38c18.34,3.72 31.16,-18.08 34.41,-36.36c3.25,-18.27 5.92,-40.45 22.78,-48.86c8.28,18.37 1.18,39.08 -2.86,59.12l-0.3,0.4l0,0.01zm-210,103.29l125.61,-58.64c-86.02,-8.95 -171.1,-25.3 -254.27,-48.86c-17.69,-3.37 -35.95,-2.19 -53.04,3.42l-122.35,29.31c-4.71,0.49 -9.03,2.85 -11.93,6.55c-1.5,3.77 -1.5,7.96 0,11.73c13.5,52.77 60.73,88.93 104.9,121.17l96.71,70.46c1.75,1.57 3.97,2.53 6.31,2.74c3.85,0 6.31,-3.92 7.99,-7.33c16.96,-34.88 24.74,-75.93 53.34,-102.31c14.06,-11.72 29.85,-21.2 46.83,-28.14l-0.1,-0.1zm6.02,23.45c-13.16,6.54 -25.34,14.87 -36.19,24.72c-21.2,21.11 -28.49,51.79 -35,80.82c-1.08,4.79 -1.48,10.94 2.76,13.29c2.15,0.89 4.52,1.13 6.8,0.68l171.16,-16.91c35.3,-3.42 74.54,-8.99 96.52,-36.55c9.27,-11.64 14.1,-29.32 5.53,-41.05c-15.74,-22.08 -27.79,-46.54 -35.69,-72.42c-4.34,-14.16 -11.24,-31.96 -26.13,-32.15c-5.86,0.44 -11.51,2.39 -16.37,5.67l-133.39,73.88l0,0.02z" fill-rule="evenodd" id="svg_14"/>
  </g>
 </g>
</svg>